# xmcd
#
# Track frame offsets:
# 150
# 5425
# 41532
# 80890
# 94539
# 130389
# 137230
# 175445
#
# Disc length: 2615 seconds
#
#
# Revision: 1
# Processed by: cddbd v1.5.2PL0 Copyright (c) Steve Scherf et al.
# Submitted via: FreeRIP 2.951 
#
DISCID=690a3508
DTITLE=Milan Svoboda Quartet - Prolínání - variace
DYEAR=2005
DGENRE=Jazz
TTITLE0=Úvod (Václav Klaus)
TTITLE1=Prolínání - Merging
TTITLE2=Modrá linka - Blue Line
TTITLE3=Intermezzo 1
TTITLE4=Vzpomínka - Memory
TTITLE5=Intermezzo 2
TTITLE6=Dobrá zpráva - Good news
TTITLE7=Jak jsi krásné neviòátko - How beautiful you are
EXTD=YEAR: 2004
EXTT0=
EXTT1=
EXTT2=
EXTT3=
EXTT4=
EXTT5=
EXTT6=
EXTT7=
PLAYORDER=
